<svg width="348" height="164" viewBox="0 0 348 164" fill="none" xmlns="http://www.w3.org/2000/svg">
<path d="M66.48 108C65.0933 108 64 107.627 63.2 106.88C62.4533 106.08 62.08 105.013 62.08 103.68C62.08 102.293 62.4533 101.253 63.2 100.56C64 99.8667 65.0933 99.52 66.48 99.52H75.44V60.24H80.4L68.64 67.36C67.6267 67.9467 66.6667 68.1867 65.76 68.08C64.9067 67.92 64.16 67.5467 63.52 66.96C62.9333 66.32 62.5333 65.5733 62.32 64.72C62.1067 63.8667 62.16 63.0133 62.48 62.16C62.8533 61.2533 63.5467 60.5067 64.56 59.92L75.6 53.28C76.6667 52.64 77.7333 52.1067 78.8 51.68C79.8667 51.2 80.8533 50.96 81.76 50.96C82.88 50.96 83.8133 51.28 84.56 51.92C85.3067 52.5067 85.68 53.4933 85.68 54.88V99.52H93.84C95.2267 99.52 96.2933 99.8667 97.04 100.56C97.84 101.253 98.24 102.293 98.24 103.68C98.24 105.067 97.84 106.133 97.04 106.88C96.2933 107.627 95.2267 108 93.84 108H66.48ZM116.449 108C115.062 108 113.969 107.627 113.169 106.88C112.422 106.08 112.049 105.013 112.049 103.68C112.049 102.293 112.422 101.253 113.169 100.56C113.969 99.8667 115.062 99.52 116.449 99.52H125.409V60.24H130.369L118.609 67.36C117.595 67.9467 116.635 68.1867 115.729 68.08C114.875 67.92 114.129 67.5467 113.489 66.96C112.902 66.32 112.502 65.5733 112.289 64.72C112.075 63.8667 112.129 63.0133 112.449 62.16C112.822 61.2533 113.515 60.5067 114.529 59.92L125.569 53.28C126.635 52.64 127.702 52.1067 128.769 51.68C129.835 51.2 130.822 50.96 131.729 50.96C132.849 50.96 133.782 51.28 134.529 51.92C135.275 52.5067 135.649 53.4933 135.649 54.88V99.52H143.809C145.195 99.52 146.262 99.8667 147.009 100.56C147.809 101.253 148.209 102.293 148.209 103.68C148.209 105.067 147.809 106.133 147.009 106.88C146.262 107.627 145.195 108 143.809 108H116.449ZM160.978 110.32C160.658 111.333 160.151 112.053 159.458 112.48C158.764 112.96 157.991 113.2 157.138 113.2C156.338 113.2 155.591 112.987 154.898 112.56C154.204 112.133 153.724 111.52 153.457 110.72C153.137 109.973 153.137 109.067 153.457 108L171.938 50.64C172.258 49.6267 172.764 48.88 173.458 48.4C174.204 47.92 174.978 47.7067 175.778 47.76C176.578 47.76 177.324 47.9733 178.018 48.4C178.711 48.8267 179.191 49.4133 179.458 50.16C179.778 50.9067 179.778 51.8133 179.458 52.88L160.978 110.32ZM205.016 108.8C198.349 108.8 193.256 106.293 189.736 101.28C186.216 96.2133 184.456 89.0133 184.456 79.68C184.456 73.3867 185.229 68.1067 186.776 63.84C188.376 59.52 190.696 56.2667 193.736 54.08C196.829 51.8933 200.589 50.8 205.016 50.8C211.736 50.8 216.829 53.2533 220.296 58.16C223.816 63.0667 225.576 70.2133 225.576 79.6C225.576 85.84 224.776 91.1467 223.176 95.52C221.629 99.84 219.336 103.147 216.296 105.44C213.256 107.68 209.496 108.8 205.016 108.8ZM205.016 100.4C208.642 100.4 211.309 98.72 213.016 95.36C214.776 92 215.656 86.7467 215.656 79.6C215.656 72.4533 214.776 67.28 213.016 64.08C211.309 60.8267 208.642 59.2 205.016 59.2C201.442 59.2 198.776 60.8267 197.016 64.08C195.256 67.28 194.376 72.4533 194.376 79.6C194.376 86.7467 195.256 92 197.016 95.36C198.776 98.72 201.442 100.4 205.016 100.4ZM264.024 108.64C262.424 108.64 261.171 108.213 260.264 107.36C259.358 106.453 258.904 105.173 258.904 103.52V97.28H239.144C237.491 97.28 236.158 96.9333 235.144 96.24C234.184 95.5467 233.704 94.4533 233.704 92.96C233.704 92.1067 233.918 91.1733 234.344 90.16C234.824 89.1467 235.651 87.8133 236.824 86.16L258.744 54.4C259.491 53.28 260.318 52.4267 261.224 51.84C262.131 51.2533 263.171 50.96 264.344 50.96C265.731 50.96 266.878 51.3867 267.784 52.24C268.691 53.04 269.144 54.32 269.144 56.08V88.8H273.064C274.611 88.8 275.758 89.1733 276.504 89.92C277.304 90.6133 277.704 91.6533 277.704 93.04C277.704 94.4267 277.304 95.4933 276.504 96.24C275.758 96.9333 274.611 97.28 273.064 97.28H269.144V103.52C269.144 105.173 268.691 106.453 267.784 107.36C266.878 108.213 265.624 108.64 264.024 108.64ZM258.904 88.8V63.84H261.224L242.344 91.52V88.8H258.904Z" fill="#E862A9"/>
<path d="M337.5 80.3125C337.5 89.6648 332.942 98.62 324.604 106.814C316.265 115.009 304.172 122.413 289.188 128.641C259.222 141.097 217.79 148.813 172 148.813C126.21 148.813 84.7779 141.097 54.8122 128.641C39.8282 122.413 27.7351 115.009 19.3956 106.814C11.0578 98.62 6.5 89.6648 6.5 80.3125C6.5 70.9602 11.0578 62.0051 19.3956 53.8112C27.7351 45.6157 39.8282 38.2121 54.8122 31.9839C84.7779 19.5282 126.21 11.8125 172 11.8125C217.79 11.8125 259.222 19.5282 289.188 31.9839C304.172 38.2121 316.265 45.6157 324.604 53.8112C332.942 62.0051 337.5 70.9602 337.5 80.3125Z" stroke="#E8AA00"/>
<path d="M344.5 85.8125C344.5 95.095 339.957 103.984 331.645 112.118C323.33 120.254 311.274 127.604 296.335 133.787C266.46 146.153 225.152 153.813 179.5 153.813C133.848 153.813 92.5405 146.153 62.665 133.787C47.7262 127.604 35.6696 120.254 27.3555 112.118C19.0431 103.984 14.5 95.095 14.5 85.8125C14.5 76.5301 19.0431 67.6409 27.3555 59.5066C35.6696 51.3707 47.7262 44.0209 62.665 37.8377C92.5405 25.4724 133.848 17.8125 179.5 17.8125C225.152 17.8125 266.46 25.4724 296.335 37.8377C311.274 44.0209 323.33 51.3707 331.645 59.5066C339.957 67.6409 344.5 76.5301 344.5 85.8125Z" stroke="#E8AA00"/>
<path d="M331.5 76.3125C331.5 85.6654 326.956 94.6207 318.643 102.814C310.329 111.01 298.272 118.413 283.334 124.641C253.459 137.097 212.152 144.813 166.5 144.813C120.848 144.813 79.5413 137.097 49.6662 124.641C34.7276 118.413 22.6711 111.01 14.3568 102.814C6.04432 94.6207 1.5 85.6654 1.5 76.3125C1.5 66.9597 6.04432 58.0044 14.3568 49.8107C22.6711 41.6153 34.7276 34.2118 49.6662 27.9837C79.5413 15.5282 120.848 7.81253 166.5 7.81253C212.152 7.81253 253.459 15.5282 283.334 27.9837C298.272 34.2118 310.329 41.6153 318.643 49.8107C326.956 58.0044 331.5 66.9597 331.5 76.3125Z" stroke="#E8AA00"/>
<path d="M340.5 85.3125C340.5 94.6654 335.956 103.621 327.643 111.814C319.329 120.01 307.272 127.413 292.334 133.641C262.459 146.097 221.152 153.813 175.5 153.813C129.848 153.813 88.5413 146.097 58.6662 133.641C43.7276 127.413 31.6711 120.01 23.3568 111.814C15.0443 103.621 10.5 94.6654 10.5 85.3125C10.5 75.9597 15.0443 67.0044 23.3568 58.8107C31.6711 50.6153 43.7276 43.2118 58.6662 36.9837C88.5413 24.5282 129.848 16.8125 175.5 16.8125C221.152 16.8125 262.459 24.5282 292.334 36.9837C307.272 43.2118 319.329 50.6153 327.643 58.8107C335.956 67.0044 340.5 75.9597 340.5 85.3125Z" stroke="#E8AA00"/>
<path d="M337.494 70.8194C338.445 80.3884 334.806 89.8577 327.326 98.8019C319.844 107.748 308.539 116.141 294.234 123.529C265.626 138.304 225.106 149.017 179.457 152.141C133.809 155.265 91.7214 150.206 60.5838 139.519C45.0141 134.176 32.2061 127.434 23.0592 119.625C13.9147 111.819 8.45636 102.972 7.50568 93.4033C6.55501 83.8343 10.1936 74.365 17.674 65.4207C25.1563 56.4742 36.4606 48.0819 50.7655 40.6939C79.3735 25.9187 119.894 15.2057 165.543 12.0816C211.191 8.95746 253.279 14.0169 284.416 24.7032C299.986 30.0467 312.794 36.7888 321.941 44.5972C331.085 52.4037 336.544 61.2504 337.494 70.8194Z" stroke="#E8AA00"/>
<path d="M340.879 66.6904C341.775 75.7125 338.045 84.6722 330.424 93.1637C322.802 101.656 311.318 109.644 296.806 116.695C267.784 130.797 226.746 141.11 180.573 144.27C134.4 147.43 91.8805 142.835 60.4678 132.87C44.76 127.886 31.855 121.568 22.6598 114.227C13.4657 106.886 8.01744 98.5543 7.1211 89.5323C6.22476 80.5102 9.95514 71.5505 17.5763 63.0589C25.1984 54.5664 36.6821 46.5791 51.1943 39.5276C80.2159 25.4259 121.254 15.1126 167.427 11.9526C213.6 8.79261 256.12 13.3874 287.532 23.353C303.24 28.3363 316.145 34.6545 325.34 41.9961C334.534 49.3368 339.983 57.6683 340.879 66.6904Z" stroke="#E8AA00"/>
<path d="M344.5 80.3125C344.5 89.661 339.848 98.6151 331.333 106.81C322.817 115.007 310.467 122.411 295.166 128.64C264.566 141.096 222.258 148.813 175.5 148.813C128.742 148.813 86.434 141.096 55.8339 128.64C40.5326 122.411 28.1831 115.007 19.6669 106.81C11.152 98.6151 6.5 89.661 6.5 80.3125C6.5 70.9641 11.152 62.0099 19.6669 53.8149C28.1831 45.6185 40.5326 38.2141 55.8339 31.9853C86.434 19.5286 128.742 11.8125 175.5 11.8125C222.258 11.8125 264.566 19.5286 295.166 31.9853C310.467 38.2141 322.817 45.6185 331.333 53.8149C339.848 62.0099 344.5 70.9641 344.5 80.3125Z" stroke="#E8AA00"/>
</svg>
