<svg width="174" height="174" viewBox="0 0 174 174" fill="none" xmlns="http://www.w3.org/2000/svg">
<path fill-rule="evenodd" clip-rule="evenodd" d="M167.086 1.15215C167.086 4.33419 164.506 6.91374 161.324 6.91374C158.142 6.91374 155.563 4.33419 155.563 1.15215C155.563 0.757582 155.602 0.372274 155.678 0H148.649C148.649 3.18198 146.069 5.76147 142.887 5.76147C139.705 5.76147 137.126 3.18198 137.126 0H130.212C130.212 3.18198 127.632 5.76147 124.45 5.76147C121.268 5.76147 118.689 3.18198 118.689 0H111.775C111.775 3.18198 109.195 5.76147 106.013 5.76147C102.831 5.76147 100.252 3.18198 100.252 0H93.3376C93.3376 3.18198 90.758 5.76147 87.576 5.76147C84.394 5.76147 81.8145 3.18198 81.8145 0H74.9005C74.9004 3.18198 72.3209 5.76147 69.1389 5.76147C65.9569 5.76147 63.3774 3.18198 63.3773 0H56.4634C56.4633 3.18198 53.8838 5.76147 50.7018 5.76147C47.5198 5.76147 44.9402 3.18198 44.9402 0H38.0265C38.0264 3.18198 35.4469 5.76147 32.2649 5.76147C29.0829 5.76147 26.5034 3.18198 26.5033 0H19.5893C19.5893 3.18199 17.0098 5.76149 13.8278 5.76149C10.6457 5.76149 8.06622 3.18199 8.06617 0H0V6.2408C0.705725 5.93248 1.48516 5.76143 2.30454 5.76143C5.48657 5.76143 8.06612 8.34098 8.06612 11.523C8.06612 14.7051 5.48657 17.2846 2.30454 17.2846C1.48516 17.2846 0.705725 17.1136 0 16.8052V24.3137C0.372309 24.2381 0.757654 24.1984 1.15226 24.1984C4.3343 24.1984 6.91385 26.778 6.91385 29.96C6.91385 33.1421 4.3343 35.7216 1.15226 35.7216C0.757654 35.7216 0.372309 35.6819 0 35.6064V42.7508C0.372309 42.6753 0.757654 42.6356 1.15226 42.6356C4.3343 42.6356 6.91385 45.2151 6.91385 48.3972C6.91385 51.5792 4.3343 54.1588 1.15226 54.1588C0.757654 54.1588 0.372309 54.1191 0 54.0435V61.188C0.372309 61.1124 0.757654 61.0727 1.15226 61.0727C4.3343 61.0727 6.91385 63.6523 6.91385 66.8343C6.91385 70.0163 4.3343 72.5959 1.15226 72.5959C0.757654 72.5959 0.372309 72.5562 0 72.4806V79.625C0.372309 79.5494 0.757654 79.5097 1.15226 79.5097C4.3343 79.5097 6.91385 82.0893 6.91385 85.2713C6.91385 88.4533 4.3343 91.0329 1.15226 91.0329C0.757654 91.0329 0.372309 90.9932 0 90.9177V98.0621C0.372309 97.9865 0.757654 97.9469 1.15226 97.9469C4.3343 97.9469 6.91385 100.526 6.91385 103.708C6.91385 106.89 4.3343 109.47 1.15226 109.47C0.757654 109.47 0.372309 109.43 0 109.355V116.499C0.372309 116.424 0.757654 116.384 1.15226 116.384C4.3343 116.384 6.91385 118.963 6.91385 122.145C6.91385 125.327 4.3343 127.907 1.15226 127.907C0.757654 127.907 0.372309 127.867 0 127.792V134.936C0.372309 134.861 0.757654 134.821 1.15226 134.821C4.3343 134.821 6.91385 137.401 6.91385 140.583C6.91385 143.765 4.3343 146.344 1.15226 146.344C0.757654 146.344 0.372309 146.305 0 146.229V153.373C0.372301 153.298 0.757637 153.258 1.15224 153.258C4.33427 153.258 6.91383 155.838 6.91383 159.02C6.91383 162.202 4.33428 164.781 1.15224 164.781C0.757637 164.781 0.372301 164.742 0 164.666V174L8.18153 174C8.10595 173.628 8.06627 173.242 8.06627 172.848C8.06627 169.666 10.6458 167.086 13.8279 167.086C17.0099 167.086 19.5894 169.666 19.5894 172.848C19.5894 173.242 19.5498 173.628 19.4742 174L26.5032 174C26.5032 170.818 29.0827 168.238 32.2647 168.238C35.4468 168.238 38.0263 170.818 38.0263 174H44.9403C44.9403 170.818 47.5198 168.238 50.7019 168.238C53.8839 168.238 56.4635 170.818 56.4635 174H63.3774C63.3774 170.818 65.957 168.238 69.139 168.238C72.3211 168.238 74.9006 170.818 74.9006 174H81.8146C81.8146 170.818 84.3941 168.238 87.5761 168.238C90.7582 168.238 93.3377 170.818 93.3377 174H100.252C100.252 170.818 102.831 168.238 106.013 168.238C109.195 168.238 111.775 170.818 111.775 174H118.689C118.689 170.818 121.268 168.238 124.45 168.238C127.632 168.238 130.212 170.818 130.212 174H137.126C137.126 170.818 139.705 168.238 142.887 168.238C146.069 168.238 148.649 170.818 148.649 174L155.563 174C155.563 170.818 158.142 168.238 161.324 168.238C164.506 168.238 167.086 170.818 167.086 174L174 174L174 164.781C170.818 164.781 168.238 162.202 168.238 159.02C168.238 155.838 170.818 153.258 174 153.258L174 146.229C171.37 145.695 169.391 143.37 169.391 140.583C169.391 137.795 171.37 135.47 174 134.936V127.792C171.37 127.258 169.391 124.933 169.391 122.146C169.391 119.358 171.37 117.033 174 116.499V109.355C171.37 108.821 169.391 106.496 169.391 103.709C169.391 100.921 171.37 98.596 174 98.0622V90.9179C171.37 90.3842 169.391 88.059 169.391 85.2716C169.391 82.4841 171.37 80.159 174 79.6252V72.4808C171.37 71.947 169.391 69.6219 169.391 66.8344C169.391 64.047 171.37 61.7219 174 61.1881V54.0438C171.37 53.51 169.391 51.1849 169.391 48.3974C169.391 45.61 171.37 43.2849 174 42.7511V35.6067C171.37 35.0729 169.391 32.7478 169.391 29.9603C169.391 27.1728 171.37 24.8477 174 24.3139V17.1695C171.37 16.6357 169.391 14.3106 169.391 11.5231C169.391 8.73571 171.37 6.4106 174 5.8768V0H166.971C167.046 0.372274 167.086 0.757582 167.086 1.15215Z" fill="white"/>
</svg>
